<svg width="20" height="20" viewBox="0 0 20 20" fill="none" xmlns="http://www.w3.org/2000/svg">
<g clip-path="url(#clip0_2_626)">
<path d="M14.1667 1.66602H5.83332C3.53214 1.66602 1.66666 3.5315 1.66666 5.83268V14.166C1.66666 16.4672 3.53214 18.3327 5.83332 18.3327H14.1667C16.4678 18.3327 18.3333 16.4672 18.3333 14.166V5.83268C18.3333 3.5315 16.4678 1.66602 14.1667 1.66602Z" stroke="white" stroke-width="1.5" stroke-linecap="round" stroke-linejoin="round"/>
<path d="M13.3333 9.47427C13.4362 10.1678 13.3177 10.8761 12.9948 11.4985C12.6719 12.1208 12.161 12.6255 11.5347 12.9407C10.9084 13.2559 10.1987 13.3656 9.5065 13.2542C8.81428 13.1428 8.17481 12.816 7.67904 12.3202C7.18327 11.8245 6.85645 11.185 6.74507 10.4928C6.63368 9.80057 6.7434 9.09085 7.05862 8.46459C7.37383 7.83832 7.8785 7.32739 8.50083 7.00448C9.12316 6.68156 9.83147 6.5631 10.525 6.66594C11.2324 6.77085 11.8874 7.10049 12.3931 7.6062C12.8988 8.1119 13.2284 8.76684 13.3333 9.47427Z" stroke="white" stroke-width="1.5" stroke-linecap="round" stroke-linejoin="round"/>
<path d="M14.5833 5.41602H14.5917" stroke="white" stroke-width="2" stroke-linecap="round" stroke-linejoin="round"/>
</g>
<defs>
<clipPath id="clip0_2_626">
<rect width="20" height="20" fill="white" transform="translate(0 -0.000488281)"/>
</clipPath>
</defs>
</svg>
