<svg width="20" height="20" viewBox="0 0 20 20" fill="none" xmlns="http://www.w3.org/2000/svg">
<path d="M17.3438 8.65254C17.3438 10.5516 16.6845 12.2874 15.4886 13.542C14.372 14.7107 12.8582 15.3839 11.3352 15.3839C9.84311 15.3839 8.8467 14.8908 8.21163 14.3742L7.31202 18.2304C7.27759 18.3781 7.19463 18.5098 7.07662 18.604C6.95861 18.6983 6.81247 18.7496 6.66193 18.7495C6.61025 18.7495 6.55874 18.7435 6.50838 18.7318C6.4227 18.712 6.34174 18.6753 6.27016 18.6239C6.19858 18.5724 6.13778 18.5072 6.09126 18.432C6.04474 18.3568 6.0134 18.2731 5.99906 18.1856C5.98471 18.0982 5.98764 18.0087 6.00767 17.9224L8.67813 6.47916C8.71863 6.30532 8.82596 6.15483 8.97652 6.06078C9.12707 5.96673 9.30852 5.93684 9.48093 5.97768C9.65334 6.01852 9.80261 6.12674 9.89588 6.27854C9.98916 6.43034 10.0188 6.61328 9.9783 6.78712L8.56797 12.8285C8.83168 13.1962 9.60778 14.0376 11.3352 14.0376C13.6327 14.0376 16.0085 12.0232 16.0085 8.65254C16.0082 7.7235 15.7959 6.80699 15.3881 5.97388C14.9804 5.14077 14.388 4.41338 13.6569 3.84795C12.9258 3.28252 12.0755 2.89421 11.1718 2.71303C10.268 2.53185 9.33509 2.56267 8.44506 2.80309C7.55502 3.04352 6.73176 3.48711 6.03892 4.09957C5.34607 4.71203 4.80222 5.47695 4.4494 6.33519C4.09659 7.19342 3.94426 8.12197 4.00421 9.04904C4.06415 9.9761 4.33477 10.8769 4.79512 11.6816C4.87816 11.8358 4.89821 12.0166 4.85099 12.1855C4.80378 12.3544 4.69303 12.498 4.54234 12.5857C4.39166 12.6735 4.21294 12.6985 4.04427 12.6553C3.87559 12.6122 3.73029 12.5043 3.63931 12.3548C3.07637 11.3712 2.74537 10.2702 2.67189 9.13698C2.59842 8.00377 2.78445 6.86872 3.21559 5.81959C3.64674 4.77046 4.31144 3.83539 5.1583 3.08668C6.00515 2.33797 7.01147 1.79569 8.0994 1.50178C9.18734 1.20788 10.3278 1.17023 11.4324 1.39173C12.5371 1.61324 13.5765 2.08797 14.4701 2.77922C15.3637 3.47046 16.0877 4.35969 16.586 5.37812C17.0842 6.39656 17.3435 7.51692 17.3438 8.65254Z" fill="white"/>
</svg>
