<svg width="20" height="20" viewBox="0 0 20 20" fill="none" xmlns="http://www.w3.org/2000/svg">
<g clip-path="url(#clip0_2_632)">
<path d="M7.47916 6.80435C8.34458 5.93935 9.12416 5.5781 10.2842 5.5781C11.4442 5.5781 14.0875 5.98643 13.7196 10.1968C13.3517 14.4068 10.7454 14.2706 10.2842 14.2706C8.56958 14.2706 7.20708 13.576 7.20708 11.8318C7.20708 9.43477 9.97291 9.31102 10.8992 9.31102C13.1608 9.31102 16.9075 9.99935 16.9075 13.7802C16.9075 18.3856 11.4992 18.9577 10.0954 18.9577C6.71625 18.9577 2.32916 17.241 2.32916 9.70643C2.32916 2.17185 7.99333 1.04102 10.2842 1.04102C12.575 1.04102 15.8108 1.37477 17.6708 6.38185" stroke="white" stroke-width="1.5" stroke-linecap="round" stroke-linejoin="round"/>
</g>
<defs>
<clipPath id="clip0_2_632">
<rect width="20" height="20" fill="white" transform="translate(0 -0.000488281)"/>
</clipPath>
</defs>
</svg>
