<svg width="20" height="20" viewBox="0 0 20 20" fill="none" xmlns="http://www.w3.org/2000/svg">
<g clip-path="url(#clip0_2_39)">
<path d="M14.1667 1.6665H5.83334C3.53215 1.6665 1.66667 3.53198 1.66667 5.83317V14.1665C1.66667 16.4677 3.53215 18.3332 5.83334 18.3332H14.1667C16.4679 18.3332 18.3333 16.4677 18.3333 14.1665V5.83317C18.3333 3.53198 16.4679 1.6665 14.1667 1.6665Z" stroke="#1D1A1A" stroke-width="1.5" stroke-linecap="round" stroke-linejoin="round"/>
<path d="M13.3333 9.47476C13.4362 10.1683 13.3177 10.8766 12.9948 11.4989C12.6719 12.1213 12.161 12.6259 11.5347 12.9412C10.9084 13.2564 10.1987 13.3661 9.50648 13.2547C8.81427 13.1433 8.1748 12.8165 7.67903 12.3207C7.18326 11.825 6.85644 11.1855 6.74505 10.4933C6.63366 9.80106 6.74338 9.09134 7.0586 8.46507C7.37382 7.83881 7.87848 7.32788 8.50082 7.00496C9.12315 6.68205 9.83146 6.56359 10.525 6.66643C11.2324 6.77133 11.8874 7.10098 12.3931 7.60669C12.8988 8.11239 13.2284 8.76733 13.3333 9.47476Z" stroke="#1D1A1A" stroke-width="1.5" stroke-linecap="round" stroke-linejoin="round"/>
<path d="M14.5833 5.4165H14.5917" stroke="#1D1A1A" stroke-width="2" stroke-linecap="round" stroke-linejoin="round"/>
</g>
<defs>
<clipPath id="clip0_2_39">
<rect width="20" height="20" fill="white"/>
</clipPath>
</defs>
</svg>
