<svg width="20" height="20" viewBox="0 0 20 20" fill="none" xmlns="http://www.w3.org/2000/svg">
<path d="M7.47916 6.80484C8.34458 5.93984 9.12416 5.57859 10.2842 5.57859C11.4442 5.57859 14.0875 5.98692 13.7196 10.1973C13.3517 14.4073 10.7454 14.2711 10.2842 14.2711C8.56958 14.2711 7.20708 13.5765 7.20708 11.8323C7.20708 9.43525 9.97291 9.3115 10.8992 9.3115C13.1608 9.3115 16.9075 9.99984 16.9075 13.7807C16.9075 18.3861 11.4992 18.9582 10.0954 18.9582C6.71625 18.9582 2.32916 17.2415 2.32916 9.70692C2.32916 2.17234 7.99333 1.0415 10.2842 1.0415C12.575 1.0415 15.8108 1.37525 17.6708 6.38234" stroke="#1D1A1A" stroke-width="1.5" stroke-linecap="round" stroke-linejoin="round"/>
</svg>
